<?xml version="1.0" encoding="UTF-8" standalone="no"?>
<!-- Created with Inkscape (http://www.inkscape.org/) -->

<svg
   version="1.1"
   id="svg2"
   width="739.49335"
   height="101.02667"
   viewBox="0 0 739.49335 101.02667"
   sodipodi:docname="IB_LOGO_FINANCIAL TECHNOLOGY_CMYK_POSITIVE_DARKBLUE.eps"
   xmlns:inkscape="http://www.inkscape.org/namespaces/inkscape"
   xmlns:sodipodi="http://sodipodi.sourceforge.net/DTD/sodipodi-0.dtd"
   xmlns="http://www.w3.org/2000/svg"
   xmlns:svg="http://www.w3.org/2000/svg">
  <defs
     id="defs6" />
  <sodipodi:namedview
     id="namedview4"
     pagecolor="#ffffff"
     bordercolor="#000000"
     borderopacity="0.25"
     inkscape:showpageshadow="2"
     inkscape:pageopacity="0.0"
     inkscape:pagecheckerboard="0"
     inkscape:deskcolor="#d1d1d1" />
  <g
     id="g8"
     inkscape:groupmode="layer"
     inkscape:label="ink_ext_XXXXXX"
     transform="matrix(1.3333333,0,0,-1.3333333,0,101.02667)">
    <g
       id="g10"
       transform="scale(0.1)">
      <path
         d="M 783.43,529.977 H 741.961 V 329.133 h 41.469 v 200.844"
         style="fill:#231f20;fill-opacity:1;fill-rule:nonzero;stroke:none"
         id="path12" />
      <path
         d="m 845.48,402.758 c 0,26.797 9.032,42.031 26.239,42.031 14.668,0 22.566,-10.719 22.566,-29.055 v -86.597 h 39.488 v 73.621 c 0,27.082 9.313,42.031 26.235,42.031 13.824,0 22.57,-9.879 22.57,-31.594 v -84.058 h 39.492 v 88.008 c 0,38.925 -19.47,58.671 -50.211,58.671 -22.004,0 -34.98,-9.308 -45.699,-24.543 -7.898,16.082 -22.566,24.543 -42.597,24.543 -17.204,0 -29.333,-6.207 -39.77,-19.746 h -0.563 v 16.364 H 805.988 V 329.137 h 39.492 v 73.621"
         style="fill:#231f20;fill-opacity:1;fill-rule:nonzero;stroke:none"
         id="path14" />
      <path
         d="m 1110.92,445.914 c 18.9,0 31.03,-17.769 31.03,-45.133 0,-27.359 -12.13,-45.133 -31.03,-45.133 -17.77,0 -29.9,16.649 -29.9,45.133 0,28.492 12.13,45.133 29.9,45.133 z m -27.93,-99.57 h 0.57 c 8.74,-13.539 24.26,-20.879 40.61,-20.879 35.83,0 58.96,29.625 58.96,75.316 0,45.699 -23.41,75.317 -59.52,75.317 -16.64,0 -32.43,-7.895 -41.18,-22.567 h -0.56 v 18.903 H 1043.5 V 276.949 h 39.49 v 69.395"
         style="fill:#231f20;fill-opacity:1;fill-rule:nonzero;stroke:none"
         id="path16" />
      <path
         d="m 1268.32,449.02 c 15.79,0 28.77,-9.875 31.31,-31.594 h -62.62 c 3.1,21.719 15.23,31.594 31.31,31.594 z m 68.82,-76.446 h -40.33 c -1.98,-11.562 -12.42,-20.023 -28.21,-20.023 -16.93,0 -31.32,10.433 -32.44,40.051 h 102.96 c 0,15.796 -1.41,26.796 -4.52,36.671 -9.02,29.051 -33.28,47.676 -66.28,47.676 -44.85,0 -71.09,-32.726 -71.09,-75.039 0,-45.699 26.24,-77.285 71.37,-77.285 38.08,0 62.9,21.719 68.54,47.949"
         style="fill:#231f20;fill-opacity:1;fill-rule:nonzero;stroke:none"
         id="path18" />
      <path
         d="m 1394.75,396.836 c 0,28.203 12.98,43.437 37.24,43.437 3.95,0 7.91,-0.566 12.42,-1.406 v 34.129 c -3.96,1.129 -9.04,1.692 -12.98,1.692 -16.92,0 -29.62,-7.051 -39.21,-22.571 h -0.57 v 20.317 h -36.38 V 329.137 h 39.48 v 67.699"
         style="fill:#231f20;fill-opacity:1;fill-rule:nonzero;stroke:none"
         id="path20" />
      <path
         d="m 1502.51,472.434 h -39.49 V 329.137 h 39.49 v 143.297"
         style="fill:#231f20;fill-opacity:1;fill-rule:nonzero;stroke:none"
         id="path22" />
      <path
         d="m 1502.51,529.977 h -39.49 v -33.856 h 39.49 v 33.856"
         style="fill:#231f20;fill-opacity:1;fill-rule:nonzero;stroke:none"
         id="path24" />
      <path
         d="m 1581.2,353.953 c -13.81,0 -21.15,7.336 -21.15,18.059 0,11.562 6.77,16.926 23.13,19.746 8.46,1.406 20.31,2.539 28.78,3.101 v -5.355 c 0,-12.981 -1.42,-20.598 -8.19,-27.363 -5.64,-5.649 -14.38,-8.188 -22.57,-8.188 z m 34.7,-5.637 h 0.57 c 0,-7.05 0.56,-13.257 1.97,-19.183 h 35.55 c -2.54,9.59 -3.96,21.156 -3.96,39.211 v 51.898 c 0,37.524 -20.87,56.703 -61.49,56.703 -40.9,0 -60.65,-22.004 -62.06,-49.363 h 38.37 c 0.56,13.539 9.02,21.719 23.69,21.719 13.83,0 23.42,-7.332 23.42,-25.391 v -5.07 c -9.04,-0.567 -25.11,-2.262 -35.83,-3.957 -41.47,-6.485 -55.57,-22.281 -55.57,-45.692 0,-24.828 18.33,-43.437 48.8,-43.437 19.75,0 35.83,7.332 46.54,22.562"
         style="fill:#231f20;fill-opacity:1;fill-rule:nonzero;stroke:none"
         id="path26" />
      <path
         d="m 1673.19,329.133 h 39.49 v 200.844 h -39.49 V 329.133"
         style="fill:#231f20;fill-opacity:1;fill-rule:nonzero;stroke:none"
         id="path28" />
      <path
         d="m 1975.77,399.656 h -42.6 c -3.11,-24.539 -18.62,-38.367 -42.32,-38.367 -29.89,0 -48.23,25.668 -48.23,68.266 0,42.308 18.62,68.261 49.08,68.261 23.41,0 38.94,-14.101 41.47,-37.511 h 41.75 c -1.98,43.718 -33.57,74.183 -83.22,74.183 -56.98,0 -91.95,-40.054 -91.95,-104.933 0,-65.16 34.7,-104.938 91.1,-104.938 49.1,0 80.97,27.367 84.92,75.039"
         style="fill:#231f20;fill-opacity:1;fill-rule:nonzero;stroke:none"
         id="path30" />
      <path
         d="m 2067.44,446.48 c 19.46,0 31.87,-17.773 31.87,-45.699 0,-27.926 -12.41,-45.699 -31.87,-45.699 -19.47,0 -31.88,17.773 -31.88,45.699 0,27.926 12.41,45.699 31.88,45.699 z m 0,-121.863 c 44.85,0 73.34,29.621 73.34,76.164 0,46.547 -28.49,76.164 -73.34,76.164 -44.85,0 -73.34,-29.617 -73.34,-76.164 0,-46.543 28.49,-76.164 73.34,-76.164"
         style="fill:#231f20;fill-opacity:1;fill-rule:nonzero;stroke:none"
         id="path32" />
      <path
         d="m 2200.27,529.977 h -39.49 V 329.133 h 39.49 v 200.844"
         style="fill:#231f20;fill-opacity:1;fill-rule:nonzero;stroke:none"
         id="path34" />
      <path
         d="m 2266.33,529.977 h -39.49 V 329.133 h 39.49 v 200.844"
         style="fill:#231f20;fill-opacity:1;fill-rule:nonzero;stroke:none"
         id="path36" />
      <path
         d="m 2356.83,449.02 c 15.8,0 28.77,-9.875 31.31,-31.594 h -62.62 c 3.1,21.719 15.23,31.594 31.31,31.594 z m 28.49,-76.446 c -1.98,-11.562 -12.42,-20.023 -28.21,-20.023 -16.92,0 -31.31,10.433 -32.44,40.051 h 102.96 c 0,15.796 -1.41,26.796 -4.51,36.671 -9.02,29.051 -33.29,47.676 -66.29,47.676 -44.85,0 -71.08,-32.726 -71.08,-75.039 0,-45.699 26.23,-77.285 71.36,-77.285 38.08,0 62.9,21.719 68.55,47.949 h -40.34"
         style="fill:#231f20;fill-opacity:1;fill-rule:nonzero;stroke:none"
         id="path38" />
      <path
         d="m 2514.05,363.266 c -17.49,0 -28.77,15.511 -28.77,40.339 0,24.825 11.28,40.336 28.77,40.336 18.61,0 30.46,-16.082 30.46,-40.336 0,-24.265 -11.85,-40.339 -30.46,-40.339 z m 67.69,109.168 h -37.23 v -19.18 h -0.56 c -11.01,16.355 -23.14,23.129 -40.63,23.129 -36.1,0 -59.23,-28.207 -59.23,-72.778 0,-44.574 22.85,-72.777 58.68,-72.777 17.2,0 29.33,6.488 40.05,21.438 h 0.56 V 339.57 c 0,-27.925 -11,-36.953 -28.77,-36.953 -14.95,0 -23.97,6.488 -24.82,17.492 h -39.49 c 2.25,-28.211 23.97,-45.695 63.46,-45.695 41.19,0 67.98,20.309 67.98,63.746 v 134.274"
         style="fill:#231f20;fill-opacity:1;fill-rule:nonzero;stroke:none"
         id="path40" />
      <path
         d="m 2669.28,449.02 c 15.79,0 28.77,-9.875 31.31,-31.594 h -62.63 c 3.11,21.719 15.24,31.594 31.32,31.594 z m 0.27,-96.469 c -16.92,0 -31.3,10.433 -32.43,40.051 h 102.96 c 0,15.796 -1.41,26.796 -4.52,36.671 -9.02,29.051 -33.28,47.676 -66.28,47.676 -44.85,0 -71.09,-32.726 -71.09,-75.039 0,-45.699 26.24,-77.285 71.36,-77.285 38.09,0 62.91,21.719 68.56,47.949 h -40.34 c -1.98,-11.562 -12.41,-20.023 -28.22,-20.023"
         style="fill:#231f20;fill-opacity:1;fill-rule:nonzero;stroke:none"
         id="path42" />
      <path
         d="M 2738.41,255.039 V 54.1953 h 39.49 V 255.039 h -39.49"
         style="fill:#231f20;fill-opacity:1;fill-rule:nonzero;stroke:none"
         id="path44" />
      <path
         d="m 2019.62,176.051 c -31.6,7.898 -43.73,12.976 -43.73,28.492 0,12.977 12.41,22 30.75,22 22.85,0 34.97,-12.129 34.97,-32.996 h 42.04 c 0,43.152 -25.95,66.004 -76.16,66.004 -44.01,0 -74.19,-24.262 -74.19,-59.524 0,-44 34.42,-53.031 72.21,-62.621 28.5,-7.332 41.48,-10.715 41.48,-28.488 0,-15.7969 -13.55,-25.6719 -34.71,-25.6719 -25.67,0 -38.92,12.6953 -38.92,36.9529 h -42.88 c 0,-45.6912 31.31,-70.5193 81.24,-70.5193 46.83,0 78.42,25.3906 78.42,63.4683 0,43.727 -32.72,53.594 -70.52,62.903"
         style="fill:#231f20;fill-opacity:1;fill-rule:nonzero;stroke:none"
         id="path46" />
      <path
         d="m 2177.51,171.539 c 15.23,0 25.38,-10.434 26.8,-27.359 h 41.18 c -3.1,33.562 -29.05,57.824 -67.7,57.824 -43.72,0 -72.21,-29.902 -72.21,-76.164 0,-46.2619 28.49,-76.1603 72.21,-76.1603 38.65,0 64.6,24.2617 67.7,60.6483 h -41.46 c -1.14,-18.6132 -11.29,-30.1796 -26.52,-30.1796 -19.19,0 -30.75,17.4883 -30.75,45.6916 0,28.215 11.56,45.699 30.75,45.699"
         style="fill:#231f20;fill-opacity:1;fill-rule:nonzero;stroke:none"
         id="path48" />
      <path
         d="m 2342.59,200.879 c -15.23,0 -29.33,-6.207 -39.49,-19.184 h -0.57 v 73.34 h -39.49 V 54.1953 h 39.49 v 76.7267 c 0,26.23 11.85,38.922 28.21,38.922 15.52,0 25.1,-9.867 25.1,-31.586 V 54.1953 h 39.5 v 88.0077 c 0,38.93 -20.59,58.676 -52.75,58.676"
         style="fill:#231f20;fill-opacity:1;fill-rule:nonzero;stroke:none"
         id="path50" />
      <path
         d="m 2486.09,80.1484 c -19.47,0 -31.88,17.7735 -31.88,45.6916 0,27.93 12.41,45.699 31.88,45.699 19.47,0 31.88,-17.769 31.88,-45.699 0,-27.9181 -12.41,-45.6916 -31.88,-45.6916 z m 0,121.8556 c -44.85,0 -73.34,-29.617 -73.34,-76.164 0,-46.5392 28.49,-76.1603 73.34,-76.1603 44.85,0 73.35,29.6211 73.35,76.1603 0,46.547 -28.5,76.164 -73.35,76.164"
         style="fill:#231f20;fill-opacity:1;fill-rule:nonzero;stroke:none"
         id="path52" />
      <path
         d="m 2646.88,80.1484 c -19.46,0 -31.88,17.7735 -31.88,45.6916 0,27.93 12.42,45.699 31.88,45.699 19.46,0 31.87,-17.769 31.87,-45.699 0,-27.9181 -12.41,-45.6916 -31.87,-45.6916 z m 0,121.8556 c -44.85,0 -73.34,-29.617 -73.34,-76.164 0,-46.5392 28.49,-76.1603 73.34,-76.1603 44.84,0 73.34,29.6211 73.34,76.1603 0,46.547 -28.5,76.164 -73.34,76.164"
         style="fill:#231f20;fill-opacity:1;fill-rule:nonzero;stroke:none"
         id="path54" />
      <path
         d="m 1007.1,120.766 c 0,-25.9496 -11.846,-38.9301 -28.205,-38.9301 -15.512,0 -25.106,9.875 -25.106,31.5981 v 84.054 h -39.492 v -88.004 c 0,-38.9254 20.594,-58.6715 52.754,-58.6715 18.332,0 32.719,8.7422 42.029,21.4336 h 0.56 V 54.1953 h 36.96 V 197.488 h -39.5 v -76.722"
         style="fill:#231f20;fill-opacity:1;fill-rule:nonzero;stroke:none"
         id="path56" />
      <path
         d="m 1137.86,142.77 c -21.72,5.636 -30.75,8.175 -30.75,18.335 0,8.18 6.77,13.254 19.47,13.254 14.1,0 22.57,-6.207 22.57,-20.875 h 37.79 c 0,31.875 -22.56,48.52 -60.08,48.52 -35.54,0 -59.24,-18.332 -59.24,-44.008 0,-33.285 25.67,-38.926 49.65,-45.125 22.28,-5.926 33,-8.465 33,-20.8788 0,-8.4609 -7.05,-13.8164 -20.87,-13.8164 -16.36,0 -25.1,8.1758 -25.1,22.5622 h -40.06 c 0,-34.6989 24.54,-51.0583 64.31,-51.0583 38.93,0 63.19,18.0547 63.19,44.8516 0,34.9767 -28.21,41.4647 -53.88,48.2387"
         style="fill:#231f20;fill-opacity:1;fill-rule:nonzero;stroke:none"
         id="path58" />
      <path
         d="m 1212.89,54.1953 h 39.49 V 197.488 h -39.49 V 54.1953"
         style="fill:#231f20;fill-opacity:1;fill-rule:nonzero;stroke:none"
         id="path60" />
      <path
         d="m 1212.89,221.191 h 39.49 v 33.848 h -39.49 v -33.848"
         style="fill:#231f20;fill-opacity:1;fill-rule:nonzero;stroke:none"
         id="path62" />
      <path
         d="m 1354.42,200.879 c -18.34,0 -32.72,-8.75 -42.03,-21.441 h -0.57 v 18.05 h -36.95 V 54.1953 h 39.49 v 76.7227 c 0,25.953 11.85,38.93 28.21,38.93 15.51,0 25.11,-9.871 25.11,-31.594 V 54.1953 h 39.49 v 88.0117 c 0,38.926 -20.59,58.672 -52.75,58.672"
         style="fill:#231f20;fill-opacity:1;fill-rule:nonzero;stroke:none"
         id="path64" />
      <path
         d="m 1463.29,142.488 c 3.11,21.723 15.24,31.59 31.32,31.59 15.79,0 28.77,-9.867 31.31,-31.59 z m 97.61,11.844 c -9.03,29.059 -33.29,47.676 -66.29,47.676 -44.85,0 -71.08,-32.727 -71.08,-75.039 0,-45.6995 26.23,-77.2854 71.37,-77.2854 38.07,0 62.9,21.7187 68.54,47.9531 h -40.34 c -1.97,-11.5664 -12.41,-20.0273 -28.2,-20.0273 -16.94,0 -31.32,10.4375 -32.45,40.0506 h 102.96 c 0,15.801 -1.41,26.805 -4.51,36.672"
         style="fill:#231f20;fill-opacity:1;fill-rule:nonzero;stroke:none"
         id="path66" />
      <path
         d="m 1651.45,142.77 c -21.72,5.636 -30.75,8.175 -30.75,18.335 0,8.18 6.76,13.254 19.46,13.254 14.11,0 22.57,-6.207 22.57,-20.875 h 37.79 c 0,31.875 -22.56,48.52 -60.08,48.52 -35.53,0 -59.24,-18.332 -59.24,-44.008 0,-33.285 25.68,-38.926 49.65,-45.125 22.29,-5.926 33.01,-8.465 33.01,-20.8788 0,-8.4609 -7.05,-13.8164 -20.88,-13.8164 -16.36,0 -25.11,8.1758 -25.11,22.5622 h -40.04 c 0,-34.6989 24.54,-51.0583 64.3,-51.0583 38.94,0 63.2,18.0547 63.2,44.8516 0,34.9767 -28.22,41.4647 -53.88,48.2387"
         style="fill:#231f20;fill-opacity:1;fill-rule:nonzero;stroke:none"
         id="path68" />
      <path
         d="m 1790.78,142.77 c -21.71,5.636 -30.74,8.175 -30.74,18.335 0,8.18 6.77,13.254 19.47,13.254 14.1,0 22.56,-6.207 22.56,-20.875 h 37.8 c 0,31.875 -22.56,48.52 -60.08,48.52 -35.54,0 -59.24,-18.332 -59.24,-44.008 0,-33.285 25.67,-38.926 49.65,-45.125 22.28,-5.926 33,-8.465 33,-20.8788 0,-8.4609 -7.05,-13.8164 -20.87,-13.8164 -16.36,0 -25.11,8.1758 -25.11,22.5622 h -40.06 c 0,-34.6989 24.55,-51.0583 64.32,-51.0583 38.93,0 63.19,18.0547 63.19,44.8516 0,34.9767 -28.21,41.4647 -53.89,48.2387"
         style="fill:#231f20;fill-opacity:1;fill-rule:nonzero;stroke:none"
         id="path70" />
      <path
         d="m 825.043,86.9336 h -41.582 v 55.7544 h 41.734 c 19.282,0 35.293,-7.645 35.293,-29.153 0,-20.3748 -18.433,-26.6014 -35.445,-26.6014 z M 783.461,223.621 h 36.562 c 16.446,0 31.192,-6.226 31.192,-25.469 0,-18.961 -13.899,-24.906 -30.34,-24.906 h -37.414 z m 82.195,-65.652 c 17.02,7.636 22.707,26.031 22.707,42.445 0,17.266 -8.508,33.961 -23.254,43.586 -13.609,8.77 -30.339,11.039 -46.507,11.039 h -35.172 -0.207 -22.868 -18.39 V 54.1953 h 18.39 v -0.0937 h 23.106 42.504 c 19.289,0 38,1.7031 53.598,13.5898 14.464,11.0352 20.421,27.168 20.421,44.9966 0,18.679 -14.504,38.89 -34.328,45.281"
         style="fill:#231f20;fill-opacity:1;fill-rule:nonzero;stroke:none"
         id="path72" />
      <path
         d="m 2914.92,54.1953 h -10 V 531.57 h 10 V 54.1953"
         style="fill:#231f20;fill-opacity:1;fill-rule:nonzero;stroke:none"
         id="path74" />
      <path
         d="m 3200.47,462.797 h -19.17 c -2.82,32.433 -25.66,53.582 -58.93,53.582 -41.45,0 -66.83,-32.996 -66.83,-86.852 0,-53.859 25.1,-86.851 66.26,-86.851 33,0 56.11,21.429 60.63,54.703 h 19.18 c -4.23,-43.141 -33.84,-71.906 -79.81,-71.906 -53.01,0 -85.72,39.476 -85.72,104.054 0,64.575 33,104.051 86.29,104.051 47.65,0 75.86,-30.453 78.1,-70.781"
         style="fill:#231f20;fill-opacity:1;fill-rule:nonzero;stroke:none"
         id="path76" />
      <path
         d="m 3244.2,411.762 h 92.21 c -1.97,31.867 -20.3,49.347 -45.97,49.347 -26.22,0 -44.55,-18.613 -46.24,-49.347 z m 89.95,-40.043 h 18.05 c -4.51,-24.531 -24.54,-46.246 -60.63,-46.246 -40.88,0 -65.41,30.457 -65.41,77.828 0,42.301 23.96,72.754 64.28,72.754 32.15,0 54.43,-19.457 60.63,-51.039 1.69,-7.614 2.25,-17.203 2.25,-27.637 h -109.4 c 0.84,-38.066 21.14,-56.957 47.65,-56.957 23.4,0 38.36,12.973 42.58,31.297"
         style="fill:#231f20;fill-opacity:1;fill-rule:nonzero;stroke:none"
         id="path78" />
      <path
         d="m 3498.46,416.273 v -87.132 h -17.48 v 86.285 c 0,33.836 -13.82,44.84 -36.66,44.84 -22.28,0 -41.73,-16.075 -41.73,-46.246 v -84.879 h -17.48 v 143.246 h 17.2 V 452.93 h 0.56 c 8.74,13.535 24.82,22.558 44.56,22.558 32.98,0 51.03,-19.734 51.03,-59.215"
         style="fill:#231f20;fill-opacity:1;fill-rule:nonzero;stroke:none"
         id="path80" />
      <path
         d="m 3591.72,344.648 v -14.945 c -3.67,-0.844 -8.74,-1.406 -12.97,-1.406 -24.53,0 -34.97,10.996 -34.97,38.633 v 90.797 h -25.65 v 14.66 h 25.65 v 33.273 h 17.48 v -33.273 h 29.06 v -14.66 h -29.06 v -90.52 c 0,-16.918 5.65,-23.687 20.59,-23.687 3.67,0 7.62,0.566 9.87,1.128"
         style="fill:#231f20;fill-opacity:1;fill-rule:nonzero;stroke:none"
         id="path82" />
      <path
         d="m 3689.09,472.672 v -16.641 c -2.26,0.282 -5.92,0.567 -9.03,0.567 -28.47,0 -44.55,-18.614 -44.55,-51.887 v -75.57 h -17.48 v 143.246 h 17.2 v -22.559 h 0.56 c 9.58,15.508 24.82,23.688 43.71,23.688 3.1,0 6.76,-0.282 9.59,-0.844"
         style="fill:#231f20;fill-opacity:1;fill-rule:nonzero;stroke:none"
         id="path84" />
      <path
         d="m 3718.5,411.762 h 92.21 c -1.98,31.867 -20.31,49.347 -45.97,49.347 -26.22,0 -44.55,-18.613 -46.24,-49.347 z m 89.95,-40.043 h 18.05 c -4.51,-24.531 -24.54,-46.246 -60.64,-46.246 -40.88,0 -65.41,30.457 -65.41,77.828 0,42.301 23.97,72.754 64.29,72.754 32.15,0 54.42,-19.457 60.62,-51.039 1.69,-7.614 2.26,-17.203 2.26,-27.637 h -109.4 c 0.84,-38.066 21.14,-56.957 47.64,-56.957 23.41,0 38.36,12.973 42.59,31.297"
         style="fill:#231f20;fill-opacity:1;fill-rule:nonzero;stroke:none"
         id="path86" />
      <path
         d="m 3952.27,490.719 v -18.332 h 29.04 v -14.66 h -29.04 V 329.141 h -17.48 v 128.586 h -25.67 v 14.66 h 25.67 v 20.019 c 0,26.227 12.4,38.633 35.24,38.633 4.23,0 8.74,-0.566 11.85,-1.129 v -14.945 c -1.97,0.566 -5.65,1.129 -9.02,1.129 -13.82,0 -20.59,-7.047 -20.59,-25.375"
         style="fill:#231f20;fill-opacity:1;fill-rule:nonzero;stroke:none"
         id="path88" />
      <path
         d="m 4011.28,400.766 c 0,-37.227 17.49,-60.063 47.1,-60.063 29.6,0 47.37,22.836 47.37,60.063 0,37.218 -17.77,60.058 -47.37,60.058 -29.61,0 -47.1,-22.84 -47.1,-60.058 z m 112.51,0 c 0,-46.813 -24.8,-75.293 -65.41,-75.293 -40.6,0 -65.43,28.48 -65.43,75.293 0,46.808 24.83,75.289 65.43,75.289 40.61,0 65.41,-28.481 65.41,-75.289"
         style="fill:#231f20;fill-opacity:1;fill-rule:nonzero;stroke:none"
         id="path90" />
      <path
         d="m 4226.65,472.672 v -16.641 c -2.25,0.282 -5.91,0.567 -9.02,0.567 -28.48,0 -44.55,-18.614 -44.55,-51.887 v -75.57 h -17.48 v 143.246 h 17.2 v -22.559 h 0.56 c 9.59,15.508 24.82,23.688 43.7,23.688 3.11,0 6.77,-0.282 9.59,-0.844"
         style="fill:#231f20;fill-opacity:1;fill-rule:nonzero;stroke:none"
         id="path92" />
      <path
         d="m 3060.2,238.277 v -75.855 h 97.57 V 145.785 H 3060.2 V 54.1406 h -18.33 V 254.91 h 122.1 V 238.277 H 3060.2"
         style="fill:#231f20;fill-opacity:1;fill-rule:nonzero;stroke:none"
         id="path94" />
      <path
         d="M 3191.39,54.1406 V 197.387 h 17.48 V 54.1406 Z m 0,175.9574 v 24.812 h 17.48 v -24.812 h -17.48"
         style="fill:#231f20;fill-opacity:1;fill-rule:nonzero;stroke:none"
         id="path96" />
      <path
         d="M 3362.3,141.273 V 54.1406 h -17.48 v 86.2854 c 0,33.836 -13.82,44.84 -36.66,44.84 -22.28,0 -41.73,-16.075 -41.73,-46.246 V 54.1406 h -17.48 V 197.387 h 17.2 V 177.93 h 0.56 c 8.74,13.535 24.82,22.558 44.55,22.558 32.99,0 51.04,-19.734 51.04,-59.215"
         style="fill:#231f20;fill-opacity:1;fill-rule:nonzero;stroke:none"
         id="path98" />
      <path
         d="m 3489.43,126.891 c -12.13,-0.844 -29.61,-3.102 -41.74,-5.075 -28.76,-4.226 -38.07,-12.406 -38.07,-28.1988 0,-16.6328 12.41,-27.6367 33.56,-27.6367 13.25,0 25.1,4.5117 33,12.6914 9.58,10.1523 13.25,18.0469 13.25,37.2231 z m 16.91,19.179 V 89.3906 c 0,-14.664 1.42,-27.0703 3.11,-35.25 h -16.36 c -1.41,6.7657 -1.97,15.2305 -1.97,21.7149 h -0.57 c -9.31,-15.5078 -25.94,-24.5313 -51.03,-24.5313 -29.33,0 -48.51,17.1953 -48.51,41.1641 0,23.4067 13.25,37.5077 54.42,43.9917 13.26,2.254 31.3,4.227 44,5.079 v 6.765 c 0,26.789 -15.23,37.785 -36.66,37.785 -24.25,0 -36.38,-13.254 -37.5,-31.867 h -18.33 c 1.69,26.789 21.14,46.813 55.83,46.813 32.15,0 53.57,-17.203 53.57,-54.985"
         style="fill:#231f20;fill-opacity:1;fill-rule:nonzero;stroke:none"
         id="path100" />
      <path
         d="M 3658.93,141.273 V 54.1406 h -17.48 v 86.2854 c 0,33.836 -13.82,44.84 -36.66,44.84 -22.28,0 -41.73,-16.075 -41.73,-46.246 V 54.1406 h -17.48 V 197.387 h 17.2 V 177.93 h 0.56 c 8.74,13.535 24.82,22.558 44.55,22.558 32.99,0 51.04,-19.734 51.04,-59.215"
         style="fill:#231f20;fill-opacity:1;fill-rule:nonzero;stroke:none"
         id="path102" />
      <path
         d="m 3812.52,148.043 h -18.33 c -1.69,21.992 -17.76,37.781 -39.75,37.781 -28.77,0 -45.97,-22.84 -45.97,-60.058 0,-37.5043 17.2,-60.0629 45.97,-60.0629 21.99,0 37.78,18.0469 39.75,39.4769 h 18.33 c -2.54,-31.0198 -24.81,-54.7073 -58.08,-54.7073 -40.04,0 -64.87,28.4804 -64.87,75.2933 0,46.808 24.83,75.289 64.87,75.289 32.42,0 55.54,-21.715 58.08,-53.012"
         style="fill:#231f20;fill-opacity:1;fill-rule:nonzero;stroke:none"
         id="path104" />
      <path
         d="M 3843.75,54.1406 V 197.387 h 17.48 V 54.1406 Z m 0,175.9574 v 24.812 h 17.48 v -24.812 h -17.48"
         style="fill:#231f20;fill-opacity:1;fill-rule:nonzero;stroke:none"
         id="path106" />
      <path
         d="m 3989.6,126.891 c -12.13,-0.844 -29.61,-3.102 -41.74,-5.075 -28.75,-4.226 -38.06,-12.406 -38.06,-28.1988 0,-16.6328 12.41,-27.6367 33.55,-27.6367 13.26,0 25.1,4.5117 33,12.6914 9.58,10.1523 13.25,18.0469 13.25,37.2231 z m 16.92,19.179 V 89.3906 c 0,-14.664 1.41,-27.0703 3.1,-35.25 h -16.35 c -1.41,6.7657 -1.98,15.2305 -1.98,21.7149 h -0.56 c -9.31,-15.5078 -25.94,-24.5313 -51.04,-24.5313 -29.33,0 -48.5,17.1953 -48.5,41.1641 0,23.4067 13.25,37.5077 54.42,43.9917 13.25,2.254 31.3,4.227 43.99,5.079 v 6.765 c 0,26.789 -15.22,37.785 -36.66,37.785 -24.24,0 -36.37,-13.254 -37.5,-31.867 h -18.33 c 1.69,26.789 21.15,46.813 55.83,46.813 32.15,0 53.58,-17.203 53.58,-54.985"
         style="fill:#231f20;fill-opacity:1;fill-rule:nonzero;stroke:none"
         id="path108" />
      <path
         d="M 4045.92,54.1406 V 254.91 h 17.48 V 54.1406 h -17.48"
         style="fill:#231f20;fill-opacity:1;fill-rule:nonzero;stroke:none"
         id="path110" />
      <path
         d="M 4244.16,238.277 V 54.1406 h -18.33 V 238.277 h -71.33 v 16.633 h 161.28 v -16.633 h -71.62"
         style="fill:#231f20;fill-opacity:1;fill-rule:nonzero;stroke:none"
         id="path112" />
      <path
         d="m 4319.79,136.762 h 92.22 c -1.99,31.867 -20.31,49.347 -45.97,49.347 -26.22,0 -44.55,-18.613 -46.25,-49.347 z m 89.96,-40.0432 h 18.05 c -4.52,-24.5313 -24.53,-46.2461 -60.63,-46.2461 -40.89,0 -65.43,30.457 -65.43,77.8283 0,42.301 23.98,72.754 64.3,72.754 32.15,0 54.42,-19.457 60.62,-51.039 1.69,-7.614 2.26,-17.203 2.26,-27.637 h -109.4 c 0.84,-38.0665 21.14,-56.9571 47.65,-56.9571 23.4,0 38.34,12.9726 42.58,31.2969"
         style="fill:#231f20;fill-opacity:1;fill-rule:nonzero;stroke:none"
         id="path114" />
      <path
         d="m 4575.16,148.043 h -18.33 c -1.69,21.992 -17.76,37.781 -39.76,37.781 -28.77,0 -45.96,-22.84 -45.96,-60.058 0,-37.5043 17.19,-60.0629 45.96,-60.0629 22,0 37.79,18.0469 39.76,39.4769 h 18.33 c -2.54,-31.0198 -24.81,-54.7073 -58.09,-54.7073 -40.04,0 -64.86,28.4804 -64.86,75.2933 0,46.808 24.82,75.289 64.86,75.289 32.43,0 55.55,-21.715 58.09,-53.012"
         style="fill:#231f20;fill-opacity:1;fill-rule:nonzero;stroke:none"
         id="path116" />
      <path
         d="m 4624.13,178.215 c 9.87,15.226 26.79,22.273 44.27,22.273 32.99,0 51.04,-19.734 51.04,-59.215 V 54.1406 h -17.48 v 86.2854 c 0,33.836 -13.82,44.84 -36.66,44.84 -22.28,0 -41.73,-16.075 -41.73,-46.246 V 54.1406 h -17.48 V 254.91 h 17.48 v -76.695 h 0.56"
         style="fill:#231f20;fill-opacity:1;fill-rule:nonzero;stroke:none"
         id="path118" />
      <path
         d="M 4872.24,141.273 V 54.1406 h -17.48 v 86.2854 c 0,33.836 -13.82,44.84 -36.66,44.84 -22.28,0 -41.73,-16.075 -41.73,-46.246 V 54.1406 h -17.48 V 197.387 h 17.2 V 177.93 h 0.56 c 8.74,13.535 24.82,22.558 44.55,22.558 32.99,0 51.04,-19.734 51.04,-59.215"
         style="fill:#231f20;fill-opacity:1;fill-rule:nonzero;stroke:none"
         id="path120" />
      <path
         d="m 4921.22,125.766 c 0,-37.2269 17.49,-60.0629 47.1,-60.0629 29.6,0 47.37,22.836 47.37,60.0629 0,37.218 -17.77,60.058 -47.37,60.058 -29.61,0 -47.1,-22.84 -47.1,-60.058 z m 112.51,0 c 0,-46.8129 -24.8,-75.2933 -65.41,-75.2933 -40.6,0 -65.43,28.4804 -65.43,75.2933 0,46.808 24.83,75.289 65.43,75.289 40.61,0 65.41,-28.481 65.41,-75.289"
         style="fill:#231f20;fill-opacity:1;fill-rule:nonzero;stroke:none"
         id="path122" />
      <path
         d="M 5065.81,54.1406 V 254.91 h 17.48 V 54.1406 h -17.48"
         style="fill:#231f20;fill-opacity:1;fill-rule:nonzero;stroke:none"
         id="path124" />
      <path
         d="m 5133.4,125.766 c 0,-37.2269 17.49,-60.0629 47.09,-60.0629 29.61,0 47.38,22.836 47.38,60.0629 0,37.218 -17.77,60.058 -47.38,60.058 -29.6,0 -47.09,-22.84 -47.09,-60.058 z m 112.52,0 c 0,-46.8129 -24.82,-75.2933 -65.43,-75.2933 -40.6,0 -65.41,28.4804 -65.41,75.2933 0,46.808 24.81,75.289 65.41,75.289 40.61,0 65.43,-28.481 65.43,-75.289"
         style="fill:#231f20;fill-opacity:1;fill-rule:nonzero;stroke:none"
         id="path126" />
      <path
         d="m 5287.54,128.301 c 0,-34.9651 16.93,-57.8088 43.71,-57.8088 27.92,0 44.84,21.9961 44.84,57.8088 0,35.816 -16.92,57.808 -44.84,57.808 -26.78,0 -43.71,-22.843 -43.71,-57.808 z m 87.14,47.656 h 0.56 v 21.43 h 17.49 V 62.8828 C 5392.73,21.4297 5371.86,0 5332.66,0 c -35.53,0 -57.24,16.918 -57.52,45.1172 h 17.76 c 0.57,-19.457 15.8,-30.4531 39.76,-30.4531 29.04,0 42.58,15.5078 42.58,49.0625 v 16.9218 h -0.56 c -9.59,-16.0742 -25.38,-25.0976 -43.99,-25.0976 -37.5,0 -61.47,28.7617 -61.47,72.7502 0,43.988 23.97,72.754 61.47,72.754 18.89,0 34.4,-8.746 43.99,-25.098"
         style="fill:#231f20;fill-opacity:1;fill-rule:nonzero;stroke:none"
         id="path128" />
      <path
         d="m 5487.01,47.375 c -14.96,-37.2227 -27.36,-46.53125 -55.28,-46.53125 -3.66,0 -7.33,0.28516 -10.43,1.12891 V 17.4844 c 3.1,-0.8477 6.77,-1.1328 10.15,-1.1328 20.87,0 27.92,6.7695 39.76,37.789 l -56.39,143.2464 h 18.88 l 46.54,-120.969 h 0.55 l 46.54,120.969 h 18.88 l -59.2,-150.012"
         style="fill:#231f20;fill-opacity:1;fill-rule:nonzero;stroke:none"
         id="path130" />
      <path
         d="m 574.363,566.453 c 0,60.457 -29.73,118.922 -81.258,152.621 -47.57,30.715 -106.042,38.645 -162.531,38.645 H 206.926 127 V 54.1016 h 80.758 148.551 c 67.386,0 132.793,5.9531 187.304,47.5744 50.539,38.644 71.348,95.137 71.348,157.566 0,65.406 -50.664,136.188 -119.953,158.563 59.465,26.758 79.355,91.172 79.355,148.648 m -129.824,-7.922 c 0,-66.398 -48.559,-87.211 -106.035,-87.211 H 207.758 v 176.399 h 127.773 c 57.481,0 109.008,-21.801 109.008,-89.188 m 40.602,-296.312 c 0,-71.356 -64.414,-93.156 -123.879,-93.156 H 207.758 v 195.23 h 154.039 c 67.387,0 123.344,-26.758 123.344,-102.074"
         style="fill:#baceee;fill-opacity:1;fill-rule:nonzero;stroke:none"
         id="path132" />
      <path
         d="M 0,54.1016 H 127 V 757.715 H 0 V 54.1016"
         style="fill:#297ecb;fill-opacity:1;fill-rule:nonzero;stroke:none"
         id="path134" />
    </g>
  </g>
</svg>
